{
  "accessors": [
    {
      "bufferView": 2,
      "componentType": 5126,
      "count": 9200,
      "max": [
        1.0,
        1.0,
        0.877495288848877
      ],
      "min": [
        -1.0,
        -1.0,
        0.0
      ],
      "type": "VEC3"
    },
    {
      "bufferView": 2,
      "byteOffset": 110400,
      "componentType": 5126,
      "count": 9200,
      "max": [
        0.9951959252357483,
        0.9995817542076111,
        1.0
      ],
      "min": [
        -0.9951959252357483,
        -0.9951961636543274,
        -1.0
      ],
      "type": "VEC3"
    },
    {
      "bufferView": 1,
      "componentType": 5126,
      "count": 9200,
      "max": [
        0.0,
        0.0
      ],
      "min": [
        0.0,
        0.0
      ],
      "type": "VEC2"
    },
    {
      "bufferView": 0,
      "componentType": 5125,
      "count": 15255,
      "type": "SCALAR"
    },
    {
      "bufferView": 2,
      "byteOffset": 220800,
      "componentType": 5126,
      "count": 764,
      "max": [
        1.0,
        1.0,
        0.398934006690979
      ],
      "min": [
        -1.0,
        -1.0,
        0.028046730905771255
      ],
      "type": "VEC3"
    },
    {
      "bufferView": 2,
      "byteOffset": 229968,
      "componentType": 5126,
      "count": 764,
      "max": [
        0.9951847791671753,
        0.9951848387718201,
        0.9798716902732849
      ],
      "min": [
        -0.9951847791671753,
        -0.9951848387718201,
        -0.8704373240470886
      ],
      "type": "VEC3"
    },
    {
      "bufferView": 1,
      "byteOffset": 73600,
      "componentType": 5126,
      "count": 764,
      "max": [
        0.0,
        0.0
      ],
      "min": [
        0.0,
        0.0
      ],
      "type": "VEC2"
    },
    {
      "bufferView": 0,
      "byteOffset": 61020,
      "componentType": 5125,
      "count": 1146,
      "type": "SCALAR"
    },
    {
      "bufferView": 2,
      "byteOffset": 239136,
      "componentType": 5126,
      "count": 618,
      "max": [
        1.0,
        1.0,
        0.398934006690979
      ],
      "min": [
        -1.0,
        -1.0,
        0.03416803479194641
      ],
      "type": "VEC3"
    },
    {
      "bufferView": 2,
      "byteOffset": 246552,
      "componentType": 5126,
      "count": 618,
      "max": [
        1.0,
        1.0,
        1.0
      ],
      "min": [
        -1.0,
        -1.0,
        -0.04895724356174469
      ],
      "type": "VEC3"
    },
    {
      "bufferView": 1,
      "byteOffset": 79712,
      "componentType": 5126,
      "count": 618,
      "max": [
        0.0,
        0.0
      ],
      "min": [
        0.0,
        0.0
      ],
      "type": "VEC2"
    },
    {
      "bufferView": 0,
      "byteOffset": 65604,
      "componentType": 5125,
      "count": 876,
      "type": "SCALAR"
    },
    {
      "bufferView": 2,
      "byteOffset": 253968,
      "componentType": 5126,
      "count": 5780,
      "max": [
        0.7735564708709717,
        0.759196400642395,
        0.8740083575248718
      ],
      "min": [
        -0.7587025165557861,
        -0.42848628759384155,
        0.26833420991897583
      ],
      "type": "VEC3"
    },
    {
      "bufferView": 2,
      "byteOffset": 323328,
      "componentType": 5126,
      "count": 5780,
      "max": [
        1.0,
        1.0,
        1.0
      ],
      "min": [
        -1.0,
        -1.0,
        0.0
      ],
      "type": "VEC3"
    },
    {
      "bufferView": 1,
      "byteOffset": 84656,
      "componentType": 5126,
      "count": 5780,
      "max": [
        0.875,
        1.0
      ],
      "min": [
        0.0,
        0.0
      ],
      "type": "VEC2"
    },
    {
      "bufferView": 0,
      "byteOffset": 69108,
      "componentType": 5125,
      "count": 8670,
      "type": "SCALAR"
    },
    {
      "bufferView": 2,
      "byteOffset": 392688,
      "componentType": 5126,
      "count": 3005,
      "max": [
        0.7207509279251099,
        0.6996816396713257,
        0.3587230443954468
      ],
      "min": [
        -0.5798630714416504,
        -0.7280704975128174,
        0.3033757209777832
      ],
      "type": "VEC3"
    },
    {
      "bufferView": 2,
      "byteOffset": 428748,
      "componentType": 5126,
      "count": 3005,
      "max": [
        0.9961947798728943,
        0.9933268427848816,
        0.9725220799446106
      ],
      "min": [
        -0.9961947798728943,
        -0.9933269023895264,
        -0.2588292062282562
      ],
      "type": "VEC3"
    },
    {
      "bufferView": 1,
      "byteOffset": 130896,
      "componentType": 5126,
      "count": 3005,
      "max": [
        0.5725268125534058,
        1.000000238418579
      ],
      "min": [
        0.125,
        -7.353326054726494e-07
      ],
      "type": "VEC2"
    },
    {
      "bufferView": 0,
      "byteOffset": 103788,
      "componentType": 5125,
      "count": 4755,
      "type": "SCALAR"
    }
  ],
  "asset": {
    "extras": {
      "author": "Daveytopdog (https://sketchfab.com/daveytopdog)",
      "license": "CC-BY-4.0 (http://creativecommons.org/licenses/by/4.0/)",
      "source": "https://sketchfab.com/3d-models/low-poly-star-labs-flash-cw-51018cadbe3c4360b34208cc20320e3f",
      "title": "Low Poly Star Labs - Flash CW"
    },
    "generator": "Sketchfab-14.81.0",
    "version": "2.0"
  },
  "bufferViews": [
    {
      "buffer": 0,
      "byteLength": 122808,
      "name": "floatBufferViews",
      "target": 34963
    },
    {
      "buffer": 0,
      "byteLength": 154936,
      "byteOffset": 122808,
      "byteStride": 8,
      "name": "floatBufferViews",
      "target": 34962
    },
    {
      "buffer": 0,
      "byteLength": 464808,
      "byteOffset": 277744,
      "byteStride": 12,
      "name": "floatBufferViews",
      "target": 34962
    }
  ],
  "buffers": [
    {
      "byteLength": 742552,
      "uri": "scene.bin"
    }
  ],
  "extensionsUsed": [
    "KHR_materials_specular"
  ],
  "materials": [
    {
      "doubleSided": true,
      "name": "Material.001",
      "pbrMetallicRoughness": {
        "baseColorFactor": [
          0.7874,
          0.7874,
          0.7874,
          1.0
        ],
        "metallicFactor": 0.0,
        "roughnessFactor": 0.8239320074516665
      }
    },
    {
      "doubleSided": true,
      "extensions": {
        "KHR_materials_specular": {
          "specularColorFactor": [
            1.0,
            1.0,
            1.0
          ],
          "specularFactor": 0.7542880130682302
        }
      },
      "name": "Material.002",
      "pbrMetallicRoughness": {
        "baseColorFactor": [
          0.17943499999999996,
          0.2523609999999999,
          0.7999999999999999,
          1.0
        ],
        "roughnessFactor": 0.007996976752691176
      }
    },
    {
      "doubleSided": true,
      "name": "Material.003",
      "pbrMetallicRoughness": {
        "baseColorFactor": [
          0.0549691,
          0.0549691,
          0.0549691,
          1.0
        ],
        "metallicFactor": 0.0,
        "roughnessFactor": 0.9877085355738017
      }
    },
    {
      "doubleSided": true,
      "name": "Material.004",
      "pbrMetallicRoughness": {
        "baseColorFactor": [
          0.00424194,
          0.00424194,
          0.00424194,
          1.0
        ],
        "metallicFactor": 0.0
      }
    },
    {
      "doubleSided": true,
      "name": "Material.005",
      "pbrMetallicRoughness": {
        "baseColorFactor": [
          0.207917,
          0.207917,
          0.207917,
          1.0
        ],
        "metallicFactor": 0.0,
        "roughnessFactor": 0.9535083454322176
      }
    }
  ],
  "meshes": [
    {
      "name": "Circle_Material.001_0",
      "primitives": [
        {
          "attributes": {
            "NORMAL": 1,
            "POSITION": 0,
            "TEXCOORD_0": 2
          },
          "indices": 3,
          "material": 0,
          "mode": 4
        }
      ]
    },
    {
      "name": "Circle_Material.002_0",
      "primitives": [
        {
          "attributes": {
            "NORMAL": 5,
            "POSITION": 4,
            "TEXCOORD_0": 6
          },
          "indices": 7,
          "material": 1,
          "mode": 4
        }
      ]
    },
    {
      "name": "Circle_Material.003_0",
      "primitives": [
        {
          "attributes": {
            "NORMAL": 9,
            "POSITION": 8,
            "TEXCOORD_0": 10
          },
          "indices": 11,
          "material": 2,
          "mode": 4
        }
      ]
    },
    {
      "name": "Circle_Material.004_0",
      "primitives": [
        {
          "attributes": {
            "NORMAL": 13,
            "POSITION": 12,
            "TEXCOORD_0": 14
          },
          "indices": 15,
          "material": 3,
          "mode": 4
        }
      ]
    },
    {
      "name": "Circle_Material.005_0",
      "primitives": [
        {
          "attributes": {
            "NORMAL": 17,
            "POSITION": 16,
            "TEXCOORD_0": 18
          },
          "indices": 19,
          "material": 4,
          "mode": 4
        }
      ]
    }
  ],
  "nodes": [
    {
      "children": [
        1
      ],
      "matrix": [
        1.0,
        0.0,
        0.0,
        0.0,
        0.0,
        2.220446049250313e-16,
        -1.0,
        0.0,
        0.0,
        1.0,
        2.220446049250313e-16,
        0.0,
        0.0,
        0.0,
        0.0,
        1.0
      ],
      "name": "Sketchfab_model"
    },
    {
      "children": [
        2
      ],
      "matrix": [
        0.009999999776482582,
        0.0,
        0.0,
        0.0,
        0.0,
        0.0,
        0.009999999776482582,
        0.0,
        0.0,
        -0.009999999776482582,
        0.0,
        0.0,
        0.0,
        0.0,
        0.0,
        1.0
      ],
      "name": "bd60f8fcf1a34836a541193c119e93a9.fbx"
    },
    {
      "children": [
        3
      ],
      "name": "RootNode"
    },
    {
      "children": [
        4,
        5,
        6,
        7,
        8
      ],
      "matrix": [
        3127.664306640625,
        0.0,
        0.0,
        0.0,
        0.0,
        -0.000509561193747472,
        -3127.6643066405836,
        0.0,
        0.0,
        3127.6643066405836,
        -0.000509561193747472,
        0.0,
        0.0,
        0.0,
        0.0,
        1.0
      ],
      "name": "Circle"
    },
    {
      "mesh": 0,
      "name": "Circle_Material.001_0"
    },
    {
      "mesh": 1,
      "name": "Circle_Material.002_0"
    },
    {
      "mesh": 2,
      "name": "Circle_Material.003_0"
    },
    {
      "mesh": 3,
      "name": "Circle_Material.004_0"
    },
    {
      "mesh": 4,
      "name": "Circle_Material.005_0"
    }
  ],
  "scene": 0,
  "scenes": [
    {
      "name": "Sketchfab_Scene",
      "nodes": [
        0
      ]
    }
  ]
}
