<svg xmlns="http://www.w3.org/2000/svg" xmlns:xlink="http://www.w3.org/1999/xlink" width="78" height="78" viewBox="0 0 78 78">
  <defs>
    <clipPath id="clip-path">
      <circle id="Ellipse_7" data-name="Ellipse 7" cx="39" cy="39" r="39" transform="translate(1678 35)" fill="#915eff"/>
    </clipPath>
  </defs>
  <g id="logo_new2" transform="translate(-1700 -22)">
    <circle id="Ellipse_6" data-name="Ellipse 6" cx="39" cy="39" r="39" transform="translate(1700 22)" fill="#915eff"/>
    <g id="Mask_Group_5" data-name="Mask Group 5" transform="translate(22 -13)" clip-path="url(#clip-path)">
      <g id="logo" transform="translate(1564 4)">
        <rect id="Rectangle_84" data-name="Rectangle 84" width="50" height="43" transform="translate(128 49)" fill="#1a1a1a"/>
        <rect id="Rectangle_85" data-name="Rectangle 85" width="32" height="48" transform="translate(137 64)" fill="#1a1a1a"/>
        <path id="Path_68" data-name="Path 68" d="M0-6.895H26.612V-.916H0Z" transform="translate(139.732 63.65)" fill="#fff"/>
        <rect id="Rectangle_87" data-name="Rectangle 87" width="34.929" height="4.006" transform="translate(155.184 59.73) rotate(90)" fill="#fff"/>
        <path id="Path_70" data-name="Path 70" d="M0,0H21.891l4.721,6.831H0Z" transform="translate(166.575 66.598) rotate(90)" fill="#fff"/>
        <path id="Path_69" data-name="Path 69" d="M0,0H26.612L22.669,6.94H0Z" transform="translate(146.672 66.598) rotate(90)" fill="#fff"/>
        <rect id="Rectangle_86" data-name="Rectangle 86" width="14.333" height="5.419" transform="translate(155.678 70.699) rotate(90)" fill="#1a1a1a"/>
        <rect id="Rectangle_88" data-name="Rectangle 88" width="19" height="5" transform="translate(143 75)" fill="#fff"/>
      </g>
    </g>
    <g id="Ellipse_8" data-name="Ellipse 8" transform="translate(1700 22)" fill="none" stroke="#915eff" stroke-width="2">
      <circle cx="39" cy="39" r="39" stroke="none"/>
      <circle cx="39" cy="39" r="38" fill="none"/>
    </g>
  </g>
</svg>
