<svg xmlns="http://www.w3.org/2000/svg" xmlns:xlink="http://www.w3.org/1999/xlink" width="171" height="171" viewBox="0 0 171 171">
  <defs>
    <clipPath id="clip-path">
      <circle id="Ellipse_7" data-name="Ellipse 7" cx="85.5" cy="85.5" r="85.5" fill="#915eff"/>
    </clipPath>
  </defs>
  <g id="logo_new2" transform="translate(-1700 -22)">
    <circle id="Ellipse_6" data-name="Ellipse 6" cx="85.5" cy="85.5" r="85.5" transform="translate(1700 22)" fill="#915eff"/>
    <g id="Mask_Group_5" data-name="Mask Group 5" transform="translate(1700 22)" clip-path="url(#clip-path)">
      <g id="logo" transform="translate(30.692 39.462)">
        <rect id="Rectangle_84" data-name="Rectangle 84" width="109" height="95" transform="translate(0.308 -0.462)" fill="#1a1a1a"/>
        <rect id="Rectangle_85" data-name="Rectangle 85" width="71" height="106" transform="translate(19.308 32.538)" fill="#1a1a1a"/>
        <path id="Path_68" data-name="Path 68" d="M0-6.895H58.341V6.213H0Z" transform="translate(25.72 23.898)" fill="#fff"/>
        <rect id="Rectangle_87" data-name="Rectangle 87" width="76.575" height="8.783" transform="translate(59.596 23.524) rotate(90)" fill="#fff"/>
        <path id="Path_70" data-name="Path 70" d="M0,0H47.991l10.35,14.976H0Z" transform="translate(84.569 38.579) rotate(90)" fill="#fff"/>
        <path id="Path_69" data-name="Path 69" d="M0,0H58.341L49.7,15.215H0Z" transform="translate(40.934 38.579) rotate(90)" fill="#fff"/>
        <rect id="Rectangle_86" data-name="Rectangle 86" width="31.423" height="11.881" transform="translate(60.678 47.571) rotate(90)" fill="#1a1a1a"/>
        <rect id="Rectangle_88" data-name="Rectangle 88" width="41" height="11" transform="translate(33.308 56.538)" fill="#fff"/>
      </g>
    </g>
    <g id="Ellipse_8" data-name="Ellipse 8" transform="translate(1700 22)" fill="none" stroke="#915eff" stroke-width="4">
      <circle cx="85.5" cy="85.5" r="85.5" stroke="none"/>
      <circle cx="85.5" cy="85.5" r="83.5" fill="none"/>
    </g>
  </g>
</svg>
