<svg xmlns="http://www.w3.org/2000/svg" xmlns:xlink="http://www.w3.org/1999/xlink" width="1920" height="638" viewBox="0 0 1920 638">
  <defs>
    <linearGradient id="linear-gradient" x1="0.5" y1="0.068" x2="0.5" y2="0.688" gradientUnits="objectBoundingBox">
      <stop offset="0" stop-color="#131325"/>
      <stop offset="1" stop-color="#000018"/>
    </linearGradient>
    <filter id="Path_188" x="92.5" y="89.501" width="361" height="459.067" filterUnits="userSpaceOnUse">
      <feOffset dx="10" dy="10" input="SourceAlpha"/>
      <feGaussianBlur stdDeviation="10" result="blur"/>
      <feFlood flood-opacity="0.71" result="color"/>
      <feComposite operator="out" in="SourceGraphic" in2="blur"/>
      <feComposite operator="in" in="color"/>
      <feComposite operator="in" in2="SourceGraphic"/>
    </filter>
    <filter id="Path_192" x="38.848" y="35.782" width="468.238" height="576.42" filterUnits="userSpaceOnUse">
      <feOffset dy="5" input="SourceAlpha"/>
      <feGaussianBlur stdDeviation="10" result="blur-2"/>
      <feFlood flood-color="#7f6fd4" flood-opacity="0.78"/>
      <feComposite operator="in" in2="blur-2"/>
      <feComposite in="SourceGraphic"/>
    </filter>
    <filter id="Path_191" x="1432.5" y="79.501" width="381" height="479.067" filterUnits="userSpaceOnUse">
      <feOffset dx="10" dy="10" input="SourceAlpha"/>
      <feGaussianBlur stdDeviation="10" result="blur-3"/>
      <feFlood flood-opacity="0.71" result="color-2"/>
      <feComposite operator="out" in="SourceGraphic" in2="blur-3"/>
      <feComposite operator="in" in="color-2"/>
      <feComposite operator="in" in2="SourceGraphic"/>
    </filter>
    <clipPath id="clip-wall_1">
      <rect width="1920" height="638"/>
    </clipPath>
  </defs>
  <g id="wall_1" data-name="wall – 1" clip-path="url(#clip-wall_1)">
    <path id="Exclusion_11" data-name="Exclusion 11" d="M-18241,8940h-1920V8302h1920Zm-366.295-548.5c-14.734,5.835-29.668,18.34-44.387,37.168a270.643,270.643,0,0,0-18.934,27.929c-5.561,9.32-11.041,19.536-16.289,30.363-4.658,9.6-9.129,19.682-13.289,29.952-3.676,9.069-7.018,18.05-9.932,26.692-2.582,7.655-4.734,14.775-6.221,20.589-1.408,5.51-2.154,9.534-2.154,11.639v244.734a30.035,30.035,0,0,0,30,30h301a30.034,30.034,0,0,0,30-30V8575.831c0-4.114-2.049-16.06-6.547-32.567a395.325,395.325,0,0,0-20.439-57.209c-10.535-23.4-22.492-43.053-35.533-58.405a134.518,134.518,0,0,0-23.8-22.322,99.061,99.061,0,0,0-13.475-8.159,85.16,85.16,0,0,0-14.551-5.669Zm-1350,0c-14.734,5.835-29.668,18.34-44.387,37.168a270.643,270.643,0,0,0-18.934,27.929c-5.561,9.32-11.041,19.536-16.289,30.363-4.658,9.6-9.129,19.682-13.289,29.952-3.676,9.069-7.018,18.05-9.932,26.692-2.582,7.655-4.734,14.775-6.221,20.589-1.408,5.51-2.154,9.534-2.154,11.639v244.734a30.035,30.035,0,0,0,30,30h301a30.034,30.034,0,0,0,30-30V8575.831c0-4.114-2.049-16.06-6.547-32.567a395.325,395.325,0,0,0-20.439-57.209c-10.535-23.4-22.492-43.053-35.533-58.405a134.518,134.518,0,0,0-23.8-22.322,99.061,99.061,0,0,0-13.475-8.159,85.16,85.16,0,0,0-14.551-5.669Z" transform="translate(20161 -8301.999)" fill="url(#linear-gradient)"/>
    <g transform="matrix(1, 0, 0, 1, 0, 0)" filter="url(#Path_188)">
      <path id="Path_188-2" data-name="Path 188" d="M111.205,0H246.652C327.148,22.942,361,167.761,361,184.33V429.067a30,30,0,0,1-30,30H30a30,30,0,0,1-30-30V184.33C0,167.761,47.178,25.351,111.205,0Z" transform="translate(92.5 89.5)" fill="#fff"/>
    </g>
    <g transform="matrix(1, 0, 0, 1, 0, 0)" filter="url(#Path_192)">
      <path id="Path_192-2" data-name="Path 192" d="M122.676,0H272.095c88.8,25.308,126.143,185.066,126.143,203.344V473.326a33.1,33.1,0,0,1-33.095,33.095H33.095A33.1,33.1,0,0,1,0,473.326V203.344C0,185.066,52.044,27.966,122.676,0Z" transform="translate(73.85 65.78)" fill="none" stroke="#9ca9ff" stroke-linecap="round" stroke-linejoin="round" stroke-width="10"/>
    </g>
    <g data-type="innerShadowGroup">
      <g transform="matrix(1, 0, 0, 1, 0, 0)" filter="url(#Path_191)">
        <path id="Path_191-2" data-name="Path 191" d="M111.205,0H246.652C327.148,22.942,361,167.761,361,184.33V429.067a30,30,0,0,1-30,30H30a30,30,0,0,1-30-30V184.33C0,167.761,47.178,25.351,111.205,0Z" transform="translate(1442.5 89.5)" fill="#fff"/>
      </g>
      <path id="Path_191-3" data-name="Path 191" d="M111.205,0H246.652C327.148,22.942,361,167.761,361,184.33V429.067a30,30,0,0,1-30,30H30a30,30,0,0,1-30-30V184.33C0,167.761,47.178,25.351,111.205,0Z" transform="translate(1442.5 89.501)" fill="none" stroke="#9ca9ff" stroke-linecap="round" stroke-linejoin="round" stroke-width="20"/>
    </g>
  </g>
</svg>
